<?xml version="1.0" ?><svg id="Capa_1" style="enable-background:new 0 0 512 512;" version="1.1" viewBox="0 0 512 512" xml:space="preserve" xmlns="http://www.w3.org/2000/svg" xmlns:xlink="http://www.w3.org/1999/xlink"><style type="text/css">
	.st0{fill:#232323;}
</style><g><path class="st0" d="M256,0.2C114.9,0.2,0.1,115,0.1,256.1S114.9,512,256,512c64.5,0,126.1-24.1,173.5-67.8   c4.5-4.2,4.8-11.2,0.6-15.7c-4.2-4.5-11.2-4.8-15.7-0.6c-43.3,39.9-99.5,61.9-158.4,61.9C127.1,489.8,22.3,385,22.3,256.1   S127.1,22.3,256,22.3s233.7,104.9,233.7,233.7c0,43.7-12.1,86.3-35,123.2c-3.2,5.2-1.6,12,3.6,15.3c5.2,3.2,12,1.6,15.3-3.6   c25.1-40.4,38.4-87.1,38.4-134.9C511.9,115,397.1,0.2,256,0.2z"/><path class="st0" d="M363.5,180.1L223.2,327.7l-75.8-60.2c-4.8-3.8-11.8-3-15.6,1.8c-3.8,4.8-3,11.8,1.8,15.6l83.8,66.5   c2,1.6,4.5,2.4,6.9,2.4c2.9,0,5.9-1.2,8-3.5l147.3-155c4.2-4.4,4-11.5-0.4-15.7C374.7,175.5,367.7,175.7,363.5,180.1z"/></g></svg>