<?xml version="1.0" ?><svg id="Capa_1" style="enable-background:new 0 0 512 512;" version="1.1" viewBox="0 0 512 512" xml:space="preserve" xmlns="http://www.w3.org/2000/svg" xmlns:xlink="http://www.w3.org/1999/xlink"><style type="text/css">
	.st0{fill:#232323;}
</style><g><path class="st0" d="M500.9,240.5c-6.1,0-11.1,5-11.1,11.1c0,62.3-24.3,120.9-68.3,164.9c-44.1,44-102.6,68.3-164.9,68.3   c-55.1,0-107.3-19-149.1-53.9l40.4-8c6-1.2,9.9-7,8.7-13c-1.2-6-7.1-9.9-13-8.7l-61.8,12.3c-0.7,0.1-1.3,0.4-2,0.6c0,0-0.1,0-0.1,0   c0,0,0,0,0,0c-0.9,0.4-1.7,0.9-2.5,1.5c-0.2,0.1-0.4,0.3-0.5,0.5c-0.7,0.6-1.3,1.3-1.9,2.1c0,0,0,0.1-0.1,0.1   c-0.5,0.8-0.9,1.6-1.2,2.5c-0.1,0.2-0.1,0.4-0.2,0.7c-0.3,0.9-0.4,1.9-0.4,2.9c0,0,0,0,0,0v71.6c0,6.1,5,11.1,11.1,11.1   S95,502,95,495.8v-46.6c45.5,37.3,102,57.7,161.7,57.7c68.2,0,132.3-26.6,180.5-74.8S512,319.8,512,251.6   C512,245.5,507,240.5,500.9,240.5z"/><path class="st0" d="M478.2,178.4c1.5,4.7,5.9,7.6,10.5,7.6c1.1,0,2.3-0.2,3.5-0.6c5.8-1.9,9-8.2,7-14c-2.9-8.7-6.2-17.3-10-25.6   c-2.5-5.6-9.1-8-14.6-5.5c-5.6,2.5-8,9.1-5.5,14.6C472.5,162.6,475.6,170.5,478.2,178.4z"/><path class="st0" d="M22.1,261.4c0-62.3,24.3-120.9,68.3-164.9c44.1-44,102.6-68.3,164.9-68.3c55.1,0,107.3,19,149.1,53.9   l-40.4,8.1c-6,1.2-9.9,7-8.7,13c1,5.3,5.7,8.9,10.8,8.9c0.7,0,1.4-0.1,2.2-0.2l61.8-12.3c0.7-0.1,1.3-0.4,2-0.6c0,0,0.1,0,0.1,0   c0,0,0,0,0,0c0.9-0.4,1.7-0.9,2.5-1.5c0.2-0.1,0.4-0.3,0.5-0.5c0.7-0.6,1.3-1.3,1.9-2.1c0,0,0-0.1,0.1-0.1c0.5-0.8,0.9-1.6,1.2-2.5   c0.1-0.2,0.1-0.4,0.2-0.7c0.3-0.9,0.4-1.9,0.4-2.9c0,0,0,0,0,0V17.2c0-6.1-5-11.1-11.1-11.1c-6.1,0-11.1,5-11.1,11.1v46.6   C371.5,26.4,315,6.1,255.3,6.1C187.1,6.1,123,32.7,74.8,80.9S0,193.2,0,261.4c0,6.1,5,11.1,11.1,11.1S22.1,267.6,22.1,261.4z"/><path class="st0" d="M31,325.4c-1.7-5.9-7.8-9.3-13.7-7.6c-5.9,1.7-9.3,7.8-7.6,13.7c3.4,12.1,7.8,24.1,13,35.6   c1.9,4.1,5.9,6.5,10.1,6.5c1.5,0,3.1-0.3,4.6-1c5.6-2.5,8-9.1,5.5-14.6C38.2,347.4,34.2,336.5,31,325.4z"/></g></svg>